<?xml version="1.0" standalone="no"?>
<!DOCTYPE svg PUBLIC "-//W3C//DTD SVG 20010904//EN"
 "http://www.w3.org/TR/2001/REC-SVG-20010904/DTD/svg10.dtd">
<svg version="1.0" xmlns="http://www.w3.org/2000/svg"
 width="2000.000000pt" height="2000.000000pt" viewBox="0 0 2000.000000 2000.000000"
 preserveAspectRatio="xMidYMid meet">
<metadata>
Created by potrace 1.16, written by Peter Selinger 2001-2019
</metadata>
<g transform="translate(0.000000,2000.000000) scale(0.100000,-0.100000)"
fill="#000000" stroke="none">
<path d="M15520 19180 c-94 -4 -239 -24 -475 -64 -631 -106 -3047 -505 -3980
-656 -553 -90 -635 -106 -760 -146 -183 -58 -325 -144 -482 -290 -206 -193
-378 -496 -423 -748 -10 -56 -17 -102 -15 -104 2 -2 62 4 133 14 l130 18 7 35
c15 78 98 256 165 353 142 205 332 345 555 411 141 41 577 113 628 103 18 -3
46 -19 61 -35 24 -25 29 -43 43 -142 20 -145 55 -209 143 -257 91 -51 134 -48
825 57 674 103 1286 195 1790 271 396 59 456 76 557 157 96 76 151 165 178
285 34 154 41 172 73 206 18 19 49 42 70 53 51 26 552 106 722 114 123 7 136
5 246 -23 236 -60 404 -203 497 -424 37 -89 45 -121 58 -233 14 -120 12 -206
-20 -1215 -20 -597 -38 -1141 -41 -1210 -3 -69 -19 -541 -35 -1050 -64 -2010
-87 -2711 -140 -4345 -11 -335 -23 -712 -26 -836 l-7 -226 119 -6 c65 -4 148
-14 183 -22 35 -9 65 -14 66 -13 3 3 135 4327 161 5253 8 297 17 555 20 573 5
31 6 32 52 32 26 0 56 -7 66 -15 11 -8 28 -15 38 -15 12 0 18 -8 19 -22 1 -13
7 2 15 32 12 50 13 36 9 -155 -7 -297 -53 -1899 -65 -2270 -6 -170 -21 -701
-35 -1180 -14 -478 -32 -1081 -40 -1340 -21 -686 -27 -1013 -17 -990 5 11 12
137 16 280 3 143 11 397 17 565 5 168 23 751 39 1295 16 545 48 1634 71 2420
29 973 46 1432 53 1437 6 4 15 9 21 11 5 2 -2 18 -17 36 -15 17 -30 48 -34 67
-4 20 -2 201 5 403 6 201 18 596 26 876 8 281 17 522 20 538 3 19 0 27 -10 27
-11 0 -14 7 -9 24 5 21 2 23 -45 29 -41 5 -58 2 -87 -15 -19 -11 -37 -18 -41
-15 -3 4 2 237 11 519 15 499 15 517 -3 670 -16 122 -25 167 -46 207 -30 59
-43 68 -19 14 18 -42 45 -213 34 -213 -4 0 -11 33 -15 72 -3 40 -18 99 -31
132 -27 67 -28 69 -14 61 12 -7 8 4 -40 112 -27 61 -60 111 -126 189 -83 99
-97 110 -219 184 -124 74 -137 79 -278 114 -82 20 -163 35 -180 34 -18 -1 -93
-4 -167 -8z m1024 -871 l6 -74 -14 80 c-7 44 -20 94 -29 112 -10 18 -17 38
-16 45 0 7 11 -10 24 -38 15 -32 26 -79 29 -125z m-6684 -322 c0 -2 -17 -19
-37 -38 l-38 -34 34 38 c33 34 41 42 41 34z m6850 -2736 c0 -19 -34 -31 -86
-31 -32 0 -33 37 -1 43 58 11 87 7 87 -12z m-263 -2143 c-3 -7 -5 -2 -5 12 0
14 2 19 5 13 2 -7 2 -19 0 -25z"/>
<path d="M16737 18345 c54 -125 58 -136 77 -293 20 -157 21 -179 9 -560 -12
-376 -11 -433 4 -419 3 4 11 183 17 399 11 353 10 409 -5 548 -17 148 -20 161
-74 290 -31 74 -63 142 -71 150 -8 8 11 -44 43 -115z"/>
<path d="M12862 17360 c-35 -4 -68 -12 -74 -18 -7 -7 -5 -30 10 -77 l20 -66
-47 -23 c-26 -13 -264 -124 -530 -245 -265 -122 -499 -230 -520 -241 -30 -15
-866 -859 -1192 -1204 l-55 -59 -650 217 c-357 119 -657 216 -667 216 -23 0
-42 -47 -26 -66 17 -21 1336 -457 1362 -450 13 3 146 131 296 286 150 154 276
278 280 276 4 -3 38 26 76 64 38 38 72 67 77 64 4 -3 8 3 8 13 0 12 -26 -8
-82 -62 -112 -109 99 116 374 399 l213 218 550 252 550 252 36 -38 c40 -42 60
-47 93 -20 29 22 226 243 233 260 3 7 -5 24 -17 38 -22 23 -28 24 -139 23 -64
-1 -144 -5 -179 -9z"/>
<path d="M3972 16610 c-115 -38 -168 -78 -336 -254 -148 -156 -168 -172 -331
-282 -193 -129 -278 -208 -333 -312 -96 -181 -113 -352 -51 -527 12 -33 49
-118 81 -190 89 -194 113 -273 149 -490 11 -66 31 -149 45 -185 61 -161 207
-289 381 -334 71 -19 209 -21 264 -4 45 13 47 20 20 109 -11 35 -22 89 -25
119 -4 30 -16 109 -28 176 l-21 120 -44 24 c-24 13 -55 36 -68 52 -33 39 -64
127 -77 220 -14 96 -5 121 48 138 34 12 39 11 55 -8 10 -12 48 -31 94 -44 73
-21 78 -22 106 -5 29 16 30 16 39 -7 23 -62 33 -121 39 -236 7 -124 7 -125 50
-198 54 -92 94 -138 143 -163 55 -28 206 -66 332 -84 114 -16 133 -24 200 -85
23 -21 59 -49 80 -64 l39 -26 -40 0 c-95 0 -132 -27 -82 -58 17 -11 19 -16 7
-29 -12 -15 -11 -15 10 -4 39 21 268 35 329 20 45 -10 55 -10 78 5 73 48 125
176 125 310 1 44 7 110 15 146 26 118 16 194 -24 183 -11 -3 -46 10 -84 31
-76 43 -117 45 -172 11 -44 -27 -84 -31 -118 -14 -11 7 -57 39 -101 73 -123
94 -145 101 -310 99 -101 -1 -147 2 -166 12 -32 17 -54 64 -78 171 -29 124
-42 117 273 143 143 12 278 24 300 26 l40 5 0 -44 c0 -29 7 -52 19 -65 20 -22
65 -28 83 -10 7 7 14 -3 23 -35 17 -62 73 -126 110 -126 34 0 67 37 76 86 l6
33 51 -42 c69 -57 85 -76 93 -114 6 -33 39 -70 64 -73 56 -8 66 8 86 129 15
90 11 131 -23 228 -38 111 -159 139 -188 45 -5 -17 -11 -22 -23 -17 -34 14
-52 17 -52 8 0 -5 15 -13 33 -18 31 -10 32 -12 38 -75 4 -36 6 -66 5 -66 0 -1
-15 -5 -32 -8 -30 -7 -32 -5 -39 31 -5 21 -7 42 -6 47 3 12 -29 207 -35 218
-3 4 -10 8 -15 8 -5 0 -20 10 -32 21 -30 29 -79 49 -104 43 -11 -3 -35 3 -53
14 -18 11 -39 18 -46 15 -8 -3 -14 0 -14 6 0 16 -114 4 -152 -16 -35 -17 -62
-58 -54 -79 5 -13 15 -15 59 -8 71 11 113 8 164 -11 46 -18 56 -39 23 -48 -11
-3 -20 0 -20 5 0 7 -22 9 -62 5 -155 -15 -477 -47 -515 -52 l-41 -4 -12 66
c-14 85 -5 154 23 181 12 12 56 36 97 55 89 41 158 108 185 182 29 79 51 105
89 105 47 0 115 -26 214 -81 48 -27 95 -49 105 -49 20 0 67 -93 89 -175 7 -25
15 -45 19 -45 12 0 20 70 13 118 -4 26 -15 64 -26 85 -11 22 -18 40 -16 41
102 55 192 160 229 266 29 83 30 210 4 289 -39 119 -130 232 -223 280 -133 68
-121 66 -437 67 -159 0 -353 4 -430 7 -125 7 -147 5 -203 -13z m1043 -1280
c-4 -6 5 -24 19 -41 26 -31 34 -53 62 -180 19 -87 11 -119 -30 -119 -51 0 -97
91 -112 221 -5 48 -3 66 12 94 11 20 26 35 37 35 10 0 15 -5 12 -10z m336
-133 c40 -27 56 -57 63 -117 3 -25 3 -38 0 -29 -4 14 -13 15 -79 4 -71 -11
-74 -10 -79 9 -15 56 -1 129 28 148 18 12 31 9 67 -15z m69 -228 c0 -42 -26
-99 -45 -99 -27 0 -52 18 -74 54 -12 18 -21 36 -21 39 0 3 27 8 60 12 43 5 60
11 60 22 0 8 5 11 10 8 6 -3 10 -20 10 -36z m-244 -396 l46 -18 -6 -79 c-3
-43 -8 -81 -10 -83 -7 -7 -154 36 -196 57 -75 38 -74 95 2 131 49 23 94 21
164 -8z"/>
<path d="M5128 14494 c12 -8 22 -22 22 -30 0 -8 4 -14 9 -14 5 0 17 -3 26 -7
30 -11 -1 35 -35 52 -38 20 -51 19 -22 -1z"/>
<path d="M11318 16159 c-17 -18 -17 -19 10 -18 15 0 21 3 14 6 -10 4 -10 8 -1
19 17 21 -3 15 -23 -7z"/>
<path d="M11500 16138 c-124 -16 -231 -35 -238 -42 -9 -9 -18 -119 -32 -387
-11 -206 -31 -573 -45 -816 -48 -847 -55 -995 -49 -1005 3 -5 23 -22 45 -37
21 -16 35 -32 31 -36 -4 -5 -1 -5 6 -1 7 4 24 0 39 -9 21 -14 42 -16 117 -12
68 4 77 3 38 -3 -70 -11 -77 -20 -16 -21 27 -1 74 -2 104 -2 30 -1 100 10 155
23 85 21 95 26 70 31 -26 6 -23 7 17 8 61 1 94 17 106 50 11 30 23 212 57 931
14 278 31 633 39 790 13 257 20 435 17 467 -1 6 -30 32 -66 58 -54 38 -69 44
-80 35 -11 -9 -15 -9 -15 -1 0 16 -46 13 -300 -21z m178 -2325 c-10 -2 -28 -2
-40 0 -13 2 -5 4 17 4 22 1 32 -1 23 -4z m-120 -10 c-10 -2 -28 -2 -40 0 -13
2 -5 4 17 4 22 1 32 -1 23 -4z"/>
<path d="M9301 15431 c-177 -22 -205 -29 -216 -46 -7 -12 -17 -98 -24 -215
-15 -265 -47 -769 -72 -1153 -24 -365 -30 -332 73 -387 l61 -33 116 6 c64 2
95 2 69 -2 -26 -4 -50 -9 -53 -13 -8 -7 110 0 165 11 l45 8 -50 3 c-35 2 -12
7 79 16 152 16 162 21 170 102 16 145 99 1619 92 1637 -3 8 -33 32 -68 54 -50
32 -65 37 -77 28 -11 -9 -15 -9 -18 1 -6 17 -54 14 -292 -17z"/>
<path d="M8571 15044 c0 -11 3 -14 6 -6 3 7 2 16 -1 19 -3 4 -6 -2 -5 -13z"/>
<path d="M10813 15015 c0 -22 2 -30 4 -17 2 12 2 30 0 40 -3 9 -5 -1 -4 -23z"/>
<path d="M10797 14835 c-20 -315 -37 -636 -35 -695 0 -39 4 -14 9 65 32 527
40 694 37 720 -2 17 -7 -24 -11 -90z"/>
<path d="M8561 14874 c0 -11 3 -14 6 -6 3 7 2 16 -1 19 -3 4 -6 -2 -5 -13z"/>
<path d="M8551 14704 c0 -11 3 -14 6 -6 3 7 2 16 -1 19 -3 4 -6 -2 -5 -13z"/>
<path d="M8521 14284 c0 -11 3 -14 6 -6 3 7 2 16 -1 19 -3 4 -6 -2 -5 -13z"/>
<path d="M8511 14114 c0 -11 3 -14 6 -6 3 7 2 16 -1 19 -3 4 -6 -2 -5 -13z"/>
<path d="M12624 14019 c-49 -4 -134 -10 -189 -15 -55 -5 -124 -9 -152 -9 -29
0 -52 -4 -50 -9 2 -5 32 -27 66 -49 l63 -40 152 12 c83 7 200 18 260 25 l109
11 -56 43 c-41 31 -64 42 -86 40 -16 -2 -69 -6 -117 -9z"/>
<path d="M8501 13944 c0 -11 3 -14 6 -6 3 7 2 16 -1 19 -3 4 -6 -2 -5 -13z"/>
<path d="M10465 13829 c-260 -28 -388 -38 -397 -33 -6 4 -9 1 -6 -7 2 -7 36
-30 74 -51 l70 -37 234 20 c244 20 301 28 265 37 -10 2 -47 22 -81 43 -33 22
-65 38 -70 38 -5 -1 -45 -5 -89 -10z"/>
<path d="M8492 13780 c0 -14 2 -19 5 -12 2 6 2 18 0 25 -3 6 -5 1 -5 -13z"/>
<path d="M10450 13705 c-67 -8 -87 -12 -55 -13 28 0 95 6 150 13 55 7 80 12
55 12 -25 0 -92 -6 -150 -12z"/>
<path d="M10253 13683 c9 -2 25 -2 35 0 9 3 1 5 -18 5 -19 0 -27 -2 -17 -5z"/>
<path d="M8482 13590 c0 -19 2 -27 5 -17 2 9 2 25 0 35 -3 9 -5 1 -5 -18z"/>
<path d="M9478 13613 c7 -3 16 -2 19 1 4 3 -2 6 -13 5 -11 0 -14 -3 -6 -6z"/>
<path d="M13130 13599 c0 -5 5 -7 10 -4 6 3 10 8 10 11 0 2 -4 4 -10 4 -5 0
-10 -5 -10 -11z"/>
<path d="M13060 13589 c-60 -11 -103 -15 -470 -44 -686 -54 -1453 -118 -2425
-200 -225 -19 -549 -46 -720 -60 -329 -27 -341 -28 -505 -46 -104 -12 -209
-13 -242 -3 -43 13 -12 -10 60 -44 l77 -37 143 1 c138 1 142 1 142 -20 0 -12
-7 -139 -16 -284 -9 -144 -14 -265 -11 -268 3 -3 62 -2 131 2 118 6 127 8 130
28 2 11 11 144 20 295 9 151 17 276 19 277 1 1 281 25 622 53 3118 258 3124
259 3176 281 19 8 15 8 -16 3 -22 -4 -49 -6 -59 -5 -22 1 -48 22 -27 22 7 0 9
5 6 10 -3 6 1 13 9 16 16 6 23 35 9 33 -5 -1 -28 -5 -53 -10z"/>
<path d="M9173 13583 c9 -2 23 -2 30 0 6 3 -1 5 -18 5 -16 0 -22 -2 -12 -5z"/>
<path d="M4315 13419 c-33 -5 -63 -10 -67 -11 -5 -2 74 -3 174 -4 167 0 192
-3 282 -27 54 -15 100 -26 103 -24 7 7 -110 47 -182 62 -76 16 -215 18 -310 4z"/>
<path d="M8510 13414 c0 -6 7 -19 16 -30 14 -18 14 -18 3 6 -14 31 -19 36 -19
24z"/>
<path d="M4208 13393 c7 -3 16 -2 19 1 4 3 -2 6 -13 5 -11 0 -14 -3 -6 -6z"/>
<path d="M3869 13292 c-36 -16 -97 -49 -137 -75 -95 -61 -146 -87 -174 -87
-17 0 -19 -3 -9 -9 7 -5 11 -13 8 -18 -4 -6 9 -18 27 -28 30 -16 39 -17 77 -6
47 14 71 36 142 129 27 35 62 71 78 80 35 20 66 41 59 41 -3 0 -34 -12 -71
-27z"/>
<path d="M4410 12501 c0 -6 -6 -11 -14 -11 -41 0 -37 -111 5 -156 23 -25 23
-25 5 -59 -18 -33 -18 -68 -2 -155 16 -82 54 -204 81 -257 14 -28 25 -57 25
-64 0 -8 9 -29 20 -47 11 -18 20 -38 20 -45 0 -7 9 -23 20 -35 11 -12 20 -25
20 -29 0 -24 237 -267 305 -312 38 -26 109 -61 165 -83 24 -9 95 -21 115 -20
55 5 103 17 116 28 8 8 25 14 37 14 39 0 32 17 -21 52 -145 97 -337 310 -337
374 0 12 16 44 36 71 l36 48 -46 -45 c-49 -47 -101 -138 -112 -196 -3 -19 -10
-34 -15 -34 -5 0 -35 51 -66 113 -57 110 -57 113 -59 202 -1 84 -4 96 -47 192
-26 56 -60 137 -77 181 -33 87 -88 181 -136 235 -32 36 -74 57 -74 38z"/>
<path d="M12710 12353 c0 -11 5 -24 11 -30 8 -8 8 -17 0 -30 -9 -17 -22 -20
-93 -21 -46 -1 -263 -13 -483 -27 -220 -14 -620 -39 -890 -55 -269 -16 -668
-41 -885 -55 -476 -30 -1579 -99 -1925 -120 -137 -8 -287 -17 -331 -21 -55 -4
-84 -3 -88 5 -12 20 -53 16 744 66 243 15 349 22 460 30 36 3 135 9 220 15 85
5 326 21 535 35 209 14 520 34 690 45 761 49 1814 120 1860 125 74 9 108 43
38 38 -21 -1 -159 -10 -308 -18 -148 -9 -432 -27 -630 -40 -198 -14 -432 -30
-520 -35 -219 -14 -299 -19 -375 -25 -36 -3 -243 -17 -460 -30 -217 -14 -422
-27 -455 -30 -33 -2 -103 -7 -155 -10 -52 -3 -124 -8 -160 -11 -36 -2 -265
-18 -510 -34 -245 -17 -546 -37 -670 -45 -343 -23 -315 -24 -313 2 4 32 -22
19 -38 -19 -31 -76 7 -150 86 -168 36 -8 223 -6 330 4 28 3 104 8 170 11 66 3
145 8 175 10 30 3 150 9 265 15 116 6 228 12 250 15 22 2 101 7 175 10 74 3
162 8 195 10 33 3 182 12 330 20 149 8 378 22 510 30 132 8 294 17 360 20 213
11 623 43 815 65 132 15 159 17 585 45 358 24 405 29 444 48 58 29 88 82 75
135 -10 38 -34 56 -34 25z"/>
<path d="M5520 12237 c12 -20 28 -59 35 -85 7 -26 14 -40 14 -31 2 32 -29 116
-50 135 -21 19 -21 18 1 -19z"/>
<path d="M10118 12263 c7 -3 16 -2 19 1 4 3 -2 6 -13 5 -11 0 -14 -3 -6 -6z"/>
<path d="M9958 12253 c12 -2 30 -2 40 0 9 3 -1 5 -23 4 -22 0 -30 -2 -17 -4z"/>
<path d="M9675 12244 c-11 -2 -108 -8 -215 -14 -219 -14 -312 -27 -195 -29 70
-1 202 8 490 34 l150 13 -105 -1 c-58 -1 -114 -2 -125 -3z"/>
<path d="M5400 12031 c-30 -9 -64 -23 -75 -30 -13 -8 -14 -11 -4 -8 9 3 37 9
63 12 44 7 48 5 79 -27 17 -19 42 -62 55 -95 25 -66 39 -75 94 -64 28 6 33 11
36 40 3 33 -35 177 -44 168 -3 -3 -21 1 -39 9 -45 18 -97 17 -165 -5z"/>
<path d="M11453 11883 c9 -2 23 -2 30 0 6 3 -1 5 -18 5 -16 0 -22 -2 -12 -5z"/>
<path d="M11263 11873 c15 -2 37 -2 50 0 12 2 0 4 -28 4 -27 0 -38 -2 -22 -4z"/>
<path d="M11093 11863 c15 -2 39 -2 55 0 15 2 2 4 -28 4 -30 0 -43 -2 -27 -4z"/>
<path d="M10918 11853 c17 -2 47 -2 65 0 17 2 3 4 -33 4 -36 0 -50 -2 -32 -4z"/>
<path d="M10747 11843 c18 -2 50 -2 70 0 21 2 7 4 -32 4 -38 0 -55 -2 -38 -4z"/>
<path d="M10598 11833 c18 -2 45 -2 60 0 15 2 0 4 -33 4 -33 0 -45 -2 -27 -4z"/>
<path d="M10433 11823 c15 -2 39 -2 55 0 15 2 2 4 -28 4 -30 0 -43 -2 -27 -4z"/>
<path d="M10268 11813 c12 -2 32 -2 45 0 12 2 2 4 -23 4 -25 0 -35 -2 -22 -4z"/>
<path d="M10088 11803 c12 -2 32 -2 45 0 12 2 2 4 -23 4 -25 0 -35 -2 -22 -4z"/>
<path d="M9918 11793 c12 -2 30 -2 40 0 9 3 -1 5 -23 4 -22 0 -30 -2 -17 -4z"/>
<path d="M9743 11783 c9 -2 25 -2 35 0 9 3 1 5 -18 5 -19 0 -27 -2 -17 -5z"/>
<path d="M9588 11773 c12 -2 30 -2 40 0 9 3 -1 5 -23 4 -22 0 -30 -2 -17 -4z"/>
<path d="M11832 11755 c0 -16 2 -22 5 -12 2 9 2 23 0 30 -3 6 -5 -1 -5 -18z"/>
<path d="M9443 11763 c9 -2 23 -2 30 0 6 3 -1 5 -18 5 -16 0 -22 -2 -12 -5z"/>
<path d="M9263 11753 c9 -2 23 -2 30 0 6 3 -1 5 -18 5 -16 0 -22 -2 -12 -5z"/>
<path d="M9083 11743 c9 -2 25 -2 35 0 9 3 1 5 -18 5 -19 0 -27 -2 -17 -5z"/>
<path d="M11798 11672 c-37 -52 -39 -52 -530 -78 -255 -13 -911 -49 -1458 -79
-547 -30 -1161 -64 -1365 -75 -203 -11 -381 -23 -395 -27 -55 -14 56 -21 190
-13 74 5 212 11 305 15 94 3 242 10 330 15 275 16 343 19 610 30 232 9 361 15
760 36 61 3 133 7 160 9 75 5 263 15 410 20 72 3 148 7 170 10 22 2 128 11
235 20 348 28 500 45 523 56 29 15 57 40 68 61 13 24 4 23 -13 0z"/>
<path d="M11518 11463 c12 -2 32 -2 45 0 12 2 2 4 -23 4 -25 0 -35 -2 -22 -4z"/>
<path d="M11308 11453 c23 -2 61 -2 85 0 23 2 4 4 -43 4 -47 0 -66 -2 -42 -4z"/>
<path d="M10835 11434 c-126 -7 -408 -22 -625 -33 -577 -30 -614 -32 -740 -41
-63 -4 -94 -8 -67 -9 44 -1 1429 69 1722 88 126 8 127 8 35 8 -52 0 -198 -6
-325 -13z"/>
<path d="M9218 11343 c23 -2 61 -2 85 0 23 2 4 4 -43 4 -47 0 -66 -2 -42 -4z"/>
<path d="M9028 11333 c23 -2 59 -2 80 0 20 2 1 4 -43 4 -44 0 -61 -2 -37 -4z"/>
<path d="M8838 11323 c23 -2 61 -2 85 0 23 2 4 4 -43 4 -47 0 -66 -2 -42 -4z"/>
<path d="M8643 11313 c26 -2 67 -2 90 0 23 2 2 3 -48 3 -49 0 -68 -1 -42 -3z"/>
<path d="M8463 11303 c20 -2 54 -2 75 0 20 2 3 4 -38 4 -41 0 -58 -2 -37 -4z"/>
<path d="M8267 11293 c18 -2 50 -2 70 0 21 2 7 4 -32 4 -38 0 -55 -2 -38 -4z"/>
<path d="M8103 11283 c15 -2 37 -2 50 0 12 2 0 4 -28 4 -27 0 -38 -2 -22 -4z"/>
<path d="M5895 11260 c-27 -7 -27 -8 -5 -8 14 0 36 4 50 8 20 6 21 8 5 8 -11
0 -33 -4 -50 -8z"/>
<path d="M5538 11243 c6 -2 18 -2 25 0 6 3 1 5 -13 5 -14 0 -19 -2 -12 -5z"/>
<path d="M5675 11240 l-100 -6 95 -1 c52 -1 118 2 145 7 l50 7 -45 0 c-25 -1
-90 -4 -145 -7z"/>
<path d="M3128 11223 c6 -2 18 -2 25 0 6 3 1 5 -13 5 -14 0 -19 -2 -12 -5z"/>
<path d="M12358 11213 c23 -2 59 -2 80 0 20 2 1 4 -43 4 -44 0 -61 -2 -37 -4z"/>
<path d="M12020 11203 c-36 -2 -272 -12 -525 -23 -253 -11 -881 -41 -1395 -65
-2167 -104 -2130 -102 -2091 -116 13 -5 44 -10 70 -11 55 -2 484 13 491 17 3
1 117 6 255 10 137 4 252 8 255 10 3 1 104 6 225 9 280 8 402 14 595 26 192
12 529 28 760 35 147 5 358 19 595 40 28 2 86 7 130 10 44 3 103 8 130 10 43
4 574 39 735 48 30 2 6 3 -55 3 -60 0 -139 -1 -175 -3z"/>
<path d="M3360 11165 c20 -7 51 -16 69 -20 28 -6 32 -4 29 10 -2 13 -17 17
-68 20 -63 3 -64 3 -30 -10z"/>
<path d="M11713 11063 c9 -2 25 -2 35 0 9 3 1 5 -18 5 -19 0 -27 -2 -17 -5z"/>
<path d="M11478 11053 c23 -2 61 -2 85 0 23 2 4 4 -43 4 -47 0 -66 -2 -42 -4z"/>
<path d="M11238 11043 c28 -2 76 -2 105 0 28 2 5 3 -53 3 -58 0 -81 -1 -52 -3z"/>
<path d="M10795 11029 c-178 -10 -315 -16 -850 -39 -253 -11 -494 -22 -535
-25 -41 -3 -327 -17 -635 -30 -618 -28 -669 -31 -587 -33 48 -2 2428 105 2837
126 l160 9 -130 0 c-71 0 -188 -3 -260 -8z"/>
<path d="M8043 10893 c15 -2 37 -2 50 0 12 2 0 4 -28 4 -27 0 -38 -2 -22 -4z"/>
<path d="M11763 10773 c20 -2 54 -2 75 0 20 2 3 4 -38 4 -41 0 -58 -2 -37 -4z"/>
<path d="M11160 10759 c-107 -4 -312 -12 -455 -18 -143 -7 -802 -34 -1465 -62
-663 -28 -1224 -51 -1248 -52 l-43 -2 33 -15 c38 -17 232 -21 438 -10 125 7
405 17 702 25 86 2 214 7 285 10 70 3 193 7 273 10 80 3 155 7 167 9 12 3 132
7 265 11 134 3 270 8 303 10 33 3 123 7 200 10 234 9 325 15 440 25 171 16
322 28 420 35 241 18 255 22 65 22 -102 0 -273 -4 -380 -8z"/>
<path d="M3436 10733 c-3 -4 -39 -12 -79 -19 l-72 -12 83 -1 c76 -1 82 1 82
19 0 21 -3 24 -14 13z"/>
<path d="M3138 10703 c6 -2 18 -2 25 0 6 3 1 5 -13 5 -14 0 -19 -2 -12 -5z"/>
<path d="M11438 10663 c28 -2 76 -2 105 0 28 2 5 3 -53 3 -58 0 -81 -1 -52 -3z"/>
<path d="M10860 10650 c-228 -9 -422 -17 -720 -30 -118 -6 -402 -17 -630 -25
-228 -8 -462 -17 -520 -20 -58 -3 -217 -10 -355 -15 -464 -20 -658 -30 -664
-36 -3 -3 50 -3 119 1 69 3 755 31 1525 61 770 30 1477 58 1570 63 l170 8
-150 0 c-82 0 -238 -3 -345 -7z"/>
<path d="M11503 10373 c26 -2 68 -2 95 0 26 2 4 3 -48 3 -52 0 -74 -1 -47 -3z"/>
<path d="M11055 10363 c-44 -2 -546 -19 -1115 -39 -1470 -50 -1959 -70 -1968
-79 -7 -8 80 -6 958 25 305 11 683 24 840 30 157 5 418 15 580 20 162 6 390
15 505 20 116 6 291 13 390 16 99 4 182 8 184 10 5 4 -240 2 -374 -3z"/>
<path d="M13418 10023 c23 -2 59 -2 80 0 20 2 1 4 -43 4 -44 0 -61 -2 -37 -4z"/>
<path d="M4100 9996 c-36 -13 -87 -33 -114 -45 -76 -34 -235 -78 -338 -95 -99
-17 -129 -17 -140 -2 -11 16 -16 -27 -32 -294 -27 -436 -29 -491 -17 -624 16
-174 39 -296 111 -586 188 -757 278 -1304 349 -2120 50 -565 50 -740 1 -1183
-29 -264 -48 -480 -95 -1057 -30 -374 -45 -510 -90 -810 -19 -124 -41 -281
-50 -350 -22 -172 -20 -167 -59 -180 -55 -18 -64 -36 -75 -149 -15 -140 -14
-206 2 -220 26 -21 153 -33 407 -38 208 -4 275 -2 359 11 57 9 116 22 130 29
43 20 51 52 53 213 l3 149 -32 10 c-41 12 -41 -2 -3 300 65 511 95 684 206
1170 136 595 183 809 204 930 29 172 30 178 34 174 9 -9 51 -346 121 -954 41
-357 95 -789 120 -960 25 -170 58 -426 75 -567 16 -141 32 -274 36 -295 5 -35
3 -40 -26 -56 -51 -30 -54 -49 -35 -193 21 -153 26 -169 62 -187 80 -40 243
-28 567 44 367 81 386 90 386 177 0 70 -22 232 -32 232 -5 0 -8 10 -6 21 3 23
-29 52 -71 64 -19 6 -23 4 -18 -9 4 -9 2 -16 -3 -16 -6 0 -10 12 -10 28 0 15
-9 88 -20 162 -11 74 -23 155 -25 180 -3 25 -9 70 -15 100 -84 484 -100 693
-115 1550 -14 745 -12 728 -155 1730 -146 1029 -183 1390 -182 1820 0 1534 4
1680 48 1705 31 18 85 68 79 73 -3 3 -37 7 -75 8 -102 3 -161 12 -292 45 -103
26 -134 29 -265 29 -165 -1 -503 22 -661 45 -147 21 -224 19 -302 -9z"/>
<path d="M13032 10013 c37 -2 100 -2 140 0 40 1 10 3 -67 3 -77 0 -110 -1 -73
-3z"/>
<path d="M12663 10003 c42 -2 112 -2 155 0 42 1 7 3 -78 3 -85 0 -120 -2 -77
-3z"/>
<path d="M11905 9989 c-148 -3 -382 -9 -520 -13 -137 -3 -410 -8 -605 -12
-195 -3 -400 -7 -456 -9 -88 -4 -390 -7 -451 -6 -17 1 -21 6 -17 19 5 15 4 15
-6 -1 -9 -14 -15 -16 -26 -6 -14 11 -443 8 -769 -6 -60 -3 -200 -7 -310 -10
-319 -9 -762 -25 -993 -35 -142 -7 -219 -7 -232 0 -29 15 -32 12 -15 -14 33
-50 26 -49 740 -30 365 10 667 15 670 12 5 -5 -9 -261 -45 -843 -11 -176 -70
-1128 -130 -2115 -61 -987 -126 -2047 -145 -2355 -31 -492 -34 -580 -25 -725
8 -149 13 -179 52 -315 36 -123 57 -174 117 -284 62 -112 90 -151 174 -240 87
-92 117 -116 232 -187 128 -77 137 -81 271 -112 183 -41 171 -39 384 -57 102
-8 253 -22 335 -30 83 -8 231 -21 330 -30 99 -8 252 -22 340 -30 137 -13 556
-51 940 -86 533 -47 703 -63 990 -89 394 -36 867 -79 1325 -120 184 -16 358
-32 385 -35 254 -28 365 -33 537 -23 l181 10 161 55 c154 53 167 59 303 154
135 95 148 107 255 239 110 135 115 143 186 309 39 94 72 178 72 188 0 45 20
89 41 90 26 2 169 53 187 66 16 12 16 3 -4 -102 -11 -59 -37 -135 -85 -244
-65 -149 -76 -167 -173 -285 -124 -152 -111 -140 -269 -250 -116 -81 -138 -92
-272 -138 -80 -27 -141 -50 -136 -52 4 -1 77 22 162 51 144 50 163 60 284 145
119 85 139 104 242 230 106 129 117 146 184 297 56 127 74 179 86 254 16 101
13 112 -33 103 -17 -3 -24 0 -24 12 0 19 -18 21 -39 3 -16 -14 -98 -40 -176
-58 -22 -4 -107 -9 -190 -10 -107 -1 -138 -4 -110 -10 22 -4 84 -8 138 -8 57
-1 97 -5 97 -11 0 -14 -118 -288 -140 -327 -10 -18 -64 -88 -120 -157 -94
-116 -112 -132 -239 -219 -147 -103 -171 -112 -356 -146 -85 -16 -154 -21
-305 -22 -190 0 -298 7 -965 66 -154 14 -359 32 -455 40 -96 9 -209 20 -250
26 -84 11 -389 37 -865 74 -479 38 -937 83 -1005 101 -33 8 -65 12 -70 9 -6
-3 -88 1 -183 9 -388 35 -628 55 -727 61 -143 8 -393 34 -460 47 -70 13 -168
52 -243 96 -43 25 -62 44 -77 75 -17 34 -30 46 -75 66 -30 13 -55 27 -55 31 0
5 -14 12 -32 15 -17 4 -72 32 -122 62 -206 124 -351 317 -421 561 -50 174 -54
309 -21 832 14 228 39 640 56 915 17 275 41 682 55 905 40 653 103 1688 125
2055 78 1297 90 1469 102 1477 7 4 31 8 53 8 64 0 2104 60 2730 79 314 10 485
18 380 18 -104 -1 -311 -4 -460 -8z m4176 -6821 c-5 -18 -39 -99 -74 -179 -60
-135 -74 -158 -176 -284 -104 -127 -121 -144 -251 -236 -133 -95 -147 -102
-296 -154 l-157 -55 -176 -10 c-135 -7 -206 -6 -306 4 -71 7 -112 14 -90 15
22 0 83 -4 135 -9 63 -7 150 -7 263 0 162 10 173 12 300 56 186 65 179 61 326
167 122 88 142 106 243 231 103 128 114 145 183 303 41 93 75 179 76 193 1 16
3 19 6 8 2 -9 0 -32 -6 -50z m-5848 -515 c-7 -2 -19 -2 -25 0 -7 3 -2 5 12 5
14 0 19 -2 13 -5z m110 -10 c-7 -2 -19 -2 -25 0 -7 3 -2 5 12 5 14 0 19 -2 13
-5z m110 -10 c-7 -2 -19 -2 -25 0 -7 3 -2 5 12 5 14 0 19 -2 13 -5z m110 -10
c-7 -2 -19 -2 -25 0 -7 3 -2 5 12 5 14 0 19 -2 13 -5z m784 -69 c-3 -3 -12 -4
-19 -1 -8 3 -5 6 6 6 11 1 17 -2 13 -5z m111 -11 c-10 -2 -26 -2 -35 0 -10 3
-2 5 17 5 19 0 27 -2 18 -5z m120 -10 c-10 -2 -28 -2 -40 0 -13 2 -5 4 17 4
22 1 32 -1 23 -4z m115 -10 c-13 -2 -33 -2 -45 0 -13 2 -3 4 22 4 25 0 35 -2
23 -4z m110 -10 c-13 -2 -33 -2 -45 0 -13 2 -3 4 22 4 25 0 35 -2 23 -4z m120
-10 c-13 -2 -35 -2 -50 0 -16 2 -5 4 22 4 28 0 40 -2 28 -4z m110 -10 c-13 -2
-35 -2 -50 0 -16 2 -5 4 22 4 28 0 40 -2 28 -4z m110 -10 c-13 -2 -35 -2 -50
0 -16 2 -5 4 22 4 28 0 40 -2 28 -4z m110 -10 c-13 -2 -35 -2 -50 0 -16 2 -5
4 22 4 28 0 40 -2 28 -4z m110 -10 c-13 -2 -35 -2 -50 0 -16 2 -5 4 22 4 28 0
40 -2 28 -4z m110 -10 c-13 -2 -33 -2 -45 0 -13 2 -3 4 22 4 25 0 35 -2 23 -4z
m110 -10 c-13 -2 -33 -2 -45 0 -13 2 -3 4 22 4 25 0 35 -2 23 -4z m110 -10
c-13 -2 -33 -2 -45 0 -13 2 -3 4 22 4 25 0 35 -2 23 -4z m110 -10 c-13 -2 -33
-2 -45 0 -13 2 -3 4 22 4 25 0 35 -2 23 -4z m110 -10 c-13 -2 -33 -2 -45 0
-13 2 -3 4 22 4 25 0 35 -2 23 -4z m120 -10 c-13 -2 -35 -2 -50 0 -16 2 -5 4
22 4 28 0 40 -2 28 -4z m110 -10 c-13 -2 -33 -2 -45 0 -13 2 -3 4 22 4 25 0
35 -2 23 -4z m115 -10 c-16 -2 -40 -2 -55 0 -16 2 -3 4 27 4 30 0 43 -2 28 -4z
m115 -10 c-13 -2 -35 -2 -50 0 -16 2 -5 4 22 4 28 0 40 -2 28 -4z m115 -10
c-16 -2 -40 -2 -55 0 -16 2 -3 4 27 4 30 0 43 -2 28 -4z m110 -10 c-16 -2 -40
-2 -55 0 -16 2 -3 4 27 4 30 0 43 -2 28 -4z m110 -10 c-16 -2 -40 -2 -55 0
-16 2 -3 4 27 4 30 0 43 -2 28 -4z m110 -10 c-16 -2 -40 -2 -55 0 -16 2 -3 4
27 4 30 0 43 -2 28 -4z m110 -10 c-16 -2 -40 -2 -55 0 -16 2 -3 4 27 4 30 0
43 -2 28 -4z m110 -10 c-16 -2 -40 -2 -55 0 -16 2 -3 4 27 4 30 0 43 -2 28 -4z
m297 -22 c99 -10 160 -19 135 -19 -25 0 -126 8 -225 17 -99 10 -160 19 -135
19 25 0 126 -8 225 -17z"/>
<path d="M11189 8973 c-13 -16 -12 -17 4 -4 9 7 17 15 17 17 0 8 -8 3 -21 -13z"/>
<path d="M11132 8903 c-26 -38 -34 -53 -29 -53 2 0 16 18 31 40 29 45 28 56
-2 13z"/>
<path d="M11070 8799 c-12 -23 -20 -43 -18 -45 3 -2 14 17 26 41 27 56 20 60
-8 4z"/>
<path d="M13270 8695 c-517 -82 -995 -392 -1294 -839 -25 -39 -46 -80 -46 -93
0 -26 22 -43 265 -208 88 -59 164 -112 169 -116 6 -6 -4 -23 -24 -44 l-35 -36
49 26 49 26 216 -144 c282 -189 316 -210 442 -273 126 -63 214 -94 267 -94 21
0 63 -5 93 -11 50 -10 63 -8 153 20 175 54 297 143 689 499 131 120 260 232
286 250 43 30 49 32 73 19 14 -7 42 -11 62 -9 32 4 35 6 24 20 -13 16 32 -8
97 -52 30 -20 30 -20 13 0 -17 19 -17 22 -1 45 9 13 20 26 23 29 18 14 110
151 130 194 25 53 32 163 13 188 -6 7 -13 25 -16 39 -8 30 -80 109 -118 128
-15 7 -37 23 -51 34 -13 12 -30 23 -38 25 -7 2 -30 16 -49 31 -53 41 -101 73
-101 68 0 -3 35 -31 78 -63 100 -75 292 -266 292 -291 0 -10 -17 -35 -37 -54
l-37 -34 27 33 c15 19 27 39 27 45 0 16 -191 22 -220 7 -45 -24 -178 -147
-475 -440 -340 -336 -371 -365 -494 -464 -108 -88 -355 -248 -338 -219 9 14
-28 27 -44 17 -8 -4 -9 -3 -5 4 5 8 0 12 -13 12 -12 0 -21 -7 -21 -15 0 -10
-6 -12 -17 -8 -16 6 -17 5 -3 -11 8 -11 -35 6 -100 39 -63 32 -109 60 -102 62
10 4 10 8 1 19 -15 19 -4 30 15 15 9 -8 16 -8 20 -2 4 5 2 12 -4 16 -5 3 -15
15 -21 27 -13 24 0 19 40 -16 25 -22 25 -22 4 31 -7 17 -6 17 18 1 l25 -16 -4
32 -3 31 21 -25 22 -25 -6 26 c-8 36 3 43 25 16 l18 -22 1 35 2 35 10 -27 c13
-38 28 -35 29 5 l1 32 11 -27 c6 -16 14 -28 18 -28 4 0 10 12 12 28 4 26 4 26
12 5 4 -13 11 -23 15 -23 4 0 11 10 15 23 7 21 8 20 14 -8 l7 -30 17 30 16 30
1 -35 c1 -37 5 -35 36 17 9 15 10 13 6 -14 -5 -39 3 -41 29 -10 21 25 24 12 8
-30 l-10 -28 30 29 c26 25 31 27 31 11 0 -10 -8 -27 -17 -38 -21 -24 -5 -17
46 22 32 24 34 25 23 4 -23 -42 4 -31 64 25 104 98 196 172 214 172 6 0 8 5 5
10 -3 6 0 10 8 10 14 0 164 150 287 289 41 46 80 89 85 95 233 261 297 323
350 337 72 18 75 20 75 38 0 22 -194 213 -279 275 -85 62 -320 177 -452 221
-214 71 -544 102 -749 70z"/>
<path d="M11010 8628 c-6 -29 -13 -102 -15 -163 l-4 -110 9 107 c4 60 13 131
19 159 6 29 10 54 7 56 -2 2 -9 -20 -16 -49z"/>
<path d="M10983 8260 c0 -47 2 -66 4 -42 2 23 2 61 0 85 -2 23 -4 4 -4 -43z"/>
<path d="M10973 8070 c0 -41 2 -58 4 -37 2 20 2 54 0 75 -2 20 -4 3 -4 -38z"/>
<path d="M14854 8105 c8 -8 23 -15 33 -15 13 0 10 4 -11 15 -36 19 -41 19 -22
0z"/>
<path d="M10963 7875 c0 -44 2 -61 4 -37 2 23 2 59 0 80 -2 20 -4 1 -4 -43z"/>
<path d="M10953 7685 c0 -44 2 -61 4 -37 2 23 2 59 0 80 -2 20 -4 1 -4 -43z"/>
<path d="M10944 7495 c0 -49 1 -71 3 -48 2 23 2 64 0 90 -2 26 -3 8 -3 -42z"/>
<path d="M10933 7310 c0 -41 2 -58 4 -37 2 20 2 54 0 75 -2 20 -4 3 -4 -38z"/>
<path d="M10923 7130 c0 -30 2 -43 4 -27 2 15 2 39 0 55 -2 15 -4 2 -4 -28z"/>
<path d="M10913 6935 c0 -22 2 -30 4 -17 2 12 2 30 0 40 -3 9 -5 -1 -4 -23z"/>
<path d="M4334 2013 c-7 -5 -14 -74 -18 -181 -4 -96 -10 -180 -12 -187 -13
-33 -191 -30 -378 6 -137 26 -199 47 -192 66 5 11 -4 13 -47 11 l-52 -3 -12
-90 c-19 -142 -35 -386 -28 -426 7 -42 18 -48 130 -76 97 -24 497 -24 710 1
89 10 293 21 500 26 193 5 383 12 423 16 l72 7 0 -110 c0 -76 4 -114 13 -121
50 -40 399 -52 827 -28 197 11 410 16 640 14 323 -2 352 -1 451 20 123 26 266
72 314 102 43 27 85 76 85 100 0 53 -24 124 -53 157 -58 66 -86 73 -319 73
l-208 0 32 -45 c35 -50 32 -67 -8 -41 -14 10 -23 20 -20 24 10 10 -46 62 -68
62 -18 0 -18 -1 4 -25 13 -14 18 -25 12 -25 -6 0 -14 5 -17 10 -3 6 -14 10
-25 10 -10 0 -20 6 -23 13 -3 8 -38 24 -79 37 -40 13 -79 28 -85 33 -9 6 -13
6 -13 -2 0 -20 -21 -11 -53 23 -27 29 -66 56 -79 56 -2 0 -2 -16 0 -35 4 -32
2 -35 -22 -35 -22 0 -26 4 -26 29 0 22 -10 37 -44 64 -31 26 -46 33 -54 25
-13 -13 -42 6 -42 28 0 7 -12 21 -27 31 -16 9 -76 63 -134 120 -113 110 -122
114 -199 93 -77 -21 -76 -17 -46 -194 15 -86 24 -161 21 -166 -10 -16 -105
-30 -203 -30 -126 0 -415 30 -424 44 -4 6 -8 25 -8 42 l0 31 -95 7 c-52 3
-102 9 -111 13 -17 6 -17 5 -1 -17 24 -34 22 -52 -5 -48 -13 2 -24 11 -26 23
-6 33 -22 45 -58 45 -38 0 -42 -6 -16 -26 9 -8 -13 0 -50 17 -37 17 -91 34
-121 38 -29 4 -63 14 -76 23 -12 9 -30 14 -40 11 -12 -3 -20 2 -23 15 -4 12
-23 25 -56 35 -28 10 -53 17 -57 17 -3 0 4 -18 15 -40 25 -49 25 -50 0 -50
-11 0 -23 8 -27 18 -7 21 -64 82 -76 82 -5 0 -7 -13 -5 -30 3 -16 1 -30 -3
-30 -12 0 -49 66 -49 88 0 19 -32 47 -110 98 -14 9 -39 39 -55 66 -16 27 -39
58 -50 68 -23 21 -103 36 -121 23z"/>
</g>
</svg>
